<svg xmlns="http://www.w3.org/2000/svg" width="249" height="250" viewBox="0 0 249 250">
  <g id="Artboard_1" data-name="Artboard 1">
    <path id="Sr." class="cls-1" d="M318.893,577.6a63,63,0,0,0,33.15-15.3,41.713,41.713,0,0,0,7.35-8.4,25.177,25.177,0,0,0,4.2-13.35,26.129,26.129,0,0,0-2.25-10.35,29.7,29.7,0,0,0-6.75-10.2,54.543,54.543,0,0,0-11.25-8.85q-0.6-.3-2.175-1.125A5.809,5.809,0,0,1,338.843,508a28.28,28.28,0,0,1,4.725-4.8,27.33,27.33,0,0,1,5.925-2.7,2.836,2.836,0,0,0,1.275-1.05,2.6,2.6,0,0,0,.525-1.5v-0.3a3.431,3.431,0,0,0-.975-1.5,2.306,2.306,0,0,0-1.575-.6l-0.75.15a11.309,11.309,0,0,0-4.2,2.4q-5.1,4.2-7.65,6.45a3.3,3.3,0,0,1-2.4,1.05,5.857,5.857,0,0,1-1.95-.45l-8.7-3.9-8.85-3.9a45.2,45.2,0,0,1-10.05-6q-7.65-5.85-7.65-14.25a21.725,21.725,0,0,1,1.2-7.2,41.236,41.236,0,0,1,5.85-10.8,80.641,80.641,0,0,1,26.55-23.7,48.986,48.986,0,0,1,10.95-4.35,23.819,23.819,0,0,1,5.7-.6q4.8,0,7.5,2.025a9.108,9.108,0,0,1,3.3,6.375,41.561,41.561,0,0,1,.3,4.35,32,32,0,0,1-.3,3.6,70.315,70.315,0,0,1-7.35,22.95l-0.75,1.5a0.632,0.632,0,0,0,0,.6,0.945,0.945,0,0,0,.45.45,2.383,2.383,0,0,0,1.05.3,4.108,4.108,0,0,0,2.25-1.5,17.461,17.461,0,0,0,1.65-3.15,87.335,87.335,0,0,0,6.15-21.3q0.3-2.7.3-3.9a25,25,0,0,0-.9-6.6q-2.25-7.347-9.45-8.85a13.362,13.362,0,0,0-4.2-.6,22.154,22.154,0,0,0-4.35.45,46.508,46.508,0,0,0-14.4,5.4,89.018,89.018,0,0,0-27.9,25.05,37.636,37.636,0,0,0-5.25,9.75,28.679,28.679,0,0,0-2.1,10.05q0,10.2,10.2,17.7a62.784,62.784,0,0,0,10.2,5.85l8.85,4.05,5.25,2.25a7.154,7.154,0,0,0,1.5.675,2.049,2.049,0,0,1,1.35,1.425,5.663,5.663,0,0,1-1.65,2.25c-0.8.7-1.35,1.2-1.65,1.5l-3.6,3.6-7.35,7.35a88.477,88.477,0,0,0-18.15,28.5,29.115,29.115,0,0,0-2.25,10.65q0,10.2,9.9,13.5a28.042,28.042,0,0,0,8.55,1.2q1.649,0,4.95-.3h0Zm-4.5-3.6a21.147,21.147,0,0,1-9.6-1.8,9.277,9.277,0,0,1-5.55-9,26.34,26.34,0,0,1,1.95-8.85,84.754,84.754,0,0,1,10.8-19.5,103.593,103.593,0,0,1,9.075-10.725q4.872-5.023,12.225-11.775a2.721,2.721,0,0,1,1.95-.9,4,4,0,0,1,1.95.6,55.534,55.534,0,0,1,14.4,10.35,28.486,28.486,0,0,1,6.3,9.3,22.248,22.248,0,0,1,1.8,8.55,21.519,21.519,0,0,1-3.15,10.95,27.7,27.7,0,0,1-5.4,6.75,59.663,59.663,0,0,1-34.2,15.9,18.592,18.592,0,0,1-2.55.15h0Zm55.2-47.1a3.025,3.025,0,0,0,2.25-1.95q0.45-1.2.825-2.55t0.825-2.7a30.445,30.445,0,0,1,5.1-9.9q2.4-2.847,4.65-2.85a6.4,6.4,0,0,1,2.85.75,13.282,13.282,0,0,0,5.1,1.05,18.372,18.372,0,0,0,9-2.85,9.306,9.306,0,0,0,4.5-5.7q0.3-2.548-1.65-2.55a2.059,2.059,0,0,0-1.2.75q-0.15.151-1.05,1.5a12.664,12.664,0,0,1-4.2,3.675,10.7,10.7,0,0,1-5.1,1.275,10.9,10.9,0,0,1-3.75-.6l-2.4-.9a5.651,5.651,0,0,0-2.25-.45,7.756,7.756,0,0,0-5.1,2.25,32.268,32.268,0,0,0-4.05,4.8,24.63,24.63,0,0,0-1.8,3.3q-0.9,1.952-1.35,2.7a1.3,1.3,0,0,1-.9.45,1,1,0,0,1-.6-0.225,0.6,0.6,0,0,1-.3-0.375q-0.15-1.2-.6-4.875a55.309,55.309,0,0,1-.45-6.675,27.663,27.663,0,0,1,.45-5.1,12.6,12.6,0,0,0,.3-2.1,2.117,2.117,0,0,0-.15-0.9,4.093,4.093,0,0,0-.375-0.6,0.651,0.651,0,0,0-.525-0.3,2.742,2.742,0,0,0-1.65.3,3.031,3.031,0,0,0-1.05,2.1q-0.3,3.3-.6,9.3l0.3,3.15a73.619,73.619,0,0,0,1.5,10.95,23.69,23.69,0,0,0,.9,3.6q0.9,2.25,2.55,2.25h0Zm43.5,6.15a4.25,4.25,0,0,0,2.85-1.2,3.432,3.432,0,0,0,1.35-2.55,2.874,2.874,0,0,0-1.5-2.175,7.217,7.217,0,0,0-3.75-.825h-0.75a2.553,2.553,0,0,0-2.1,2.85,4.115,4.115,0,0,0,3.9,3.9h0Z" transform="translate(-231 -375)"/>
  </g>
</svg>
